<svg width="114" height="112" xmlns="http://www.w3.org/2000/svg" xmlns:xlink="http://www.w3.org/1999/xlink" xml:space="preserve" overflow="hidden"><defs><clipPath id="clip0"><rect x="614" y="318" width="114" height="112"/></clipPath><clipPath id="clip1"><rect x="614" y="318" width="114" height="112"/></clipPath><clipPath id="clip2"><rect x="615" y="319" width="112" height="111"/></clipPath><clipPath id="clip3"><rect x="615" y="319" width="112" height="111"/></clipPath></defs><g clip-path="url(#clip0)" transform="translate(-614 -318)"><g clip-path="url(#clip1)"><g clip-path="url(#clip2)"><g clip-path="url(#clip3)"><path d="M2223.88 1112.94C2223.88 1102.74 2232.14 1094.48 2242.34 1094.48L2316.17 1094.48C2326.36 1094.48 2334.62 1102.74 2334.62 1112.94L2334.62 1186.77C2334.62 1196.96 2326.36 1205.22 2316.17 1205.22L2242.34 1205.22C2232.14 1205.22 2223.88 1196.96 2223.88 1186.77Z" fill="#F2F2F2" fill-rule="evenodd" fill-opacity="1" transform="matrix(1.00618 0 0 1 -1622.72 -774.928)"/><text fill="#000000" fill-opacity="1" font-family="Apple Color Emoji,Apple Color Emoji_MSFontService,sans-serif" font-style="normal" font-variant="normal" font-weight="400" font-stretch="normal" font-size="83" text-anchor="start" direction="ltr" writing-mode="lr-tb" unicode-bidi="normal" text-decoration="none" transform="matrix(1.00387 0 0 0.997702 630.415 415)">🎼</text></g></g></g></g></svg>